<?xml version="1.0" encoding="UTF-8"?>
<svg id="Layer_1" data-name="Layer 1" xmlns="http://www.w3.org/2000/svg" xmlns:xlink="http://www.w3.org/1999/xlink" viewBox="0 0 41.65 40.22">
  <defs>
    <style>
      .cls-1 {
        fill: url(#linear-gradient-2);
      }

      .cls-2 {
        fill: url(#linear-gradient-4);
      }

      .cls-3 {
        fill: url(#linear-gradient-3);
      }

      .cls-4 {
        fill: url(#linear-gradient-5);
      }

      .cls-5 {
        fill: url(#linear-gradient);
      }
    </style>
    <linearGradient id="linear-gradient" x1="-21.91" y1="71.92" x2="85.54" y2="-31.02" gradientTransform="translate(0 42.23) scale(1 -1)" gradientUnits="userSpaceOnUse">
      <stop offset="0" stop-color="#f7941d"/>
      <stop offset="1" stop-color="#f15a29"/>
    </linearGradient>
    <linearGradient id="linear-gradient-2" x1="-25.82" y1="67.84" x2="81.62" y2="-35.1" gradientTransform="translate(0 42.23) scale(1 -1)" gradientUnits="userSpaceOnUse">
      <stop offset="0" stop-color="#f7941d"/>
      <stop offset="1" stop-color="#f15a29"/>
    </linearGradient>
    <linearGradient id="linear-gradient-3" x1="-27.5" y1="66.09" x2="79.95" y2="-36.85" gradientTransform="translate(0 42.23) scale(1 -1)" gradientUnits="userSpaceOnUse">
      <stop offset="0" stop-color="#f7941d"/>
      <stop offset="1" stop-color="#f15a29"/>
    </linearGradient>
    <linearGradient id="linear-gradient-4" x1="-35.24" y1="58.01" x2="72.21" y2="-44.93" gradientTransform="translate(0 42.23) scale(1 -1)" gradientUnits="userSpaceOnUse">
      <stop offset="0" stop-color="#f7941d"/>
      <stop offset="1" stop-color="#f15a29"/>
    </linearGradient>
    <linearGradient id="linear-gradient-5" x1="-15.84" y1="78.25" x2="91.6" y2="-24.68" gradientTransform="translate(0 42.23) scale(1 -1)" gradientUnits="userSpaceOnUse">
      <stop offset="0" stop-color="#f7941d"/>
      <stop offset="1" stop-color="#f15a29"/>
    </linearGradient>
  </defs>
  <path class="cls-5" d="M41.65,26.29v2.09c-.3,2.4-1.1,4.75-2.56,6.68-.13.17-.79,1-.91,1.02-1.96-.74-3.68-2.18-5.02-3.77-3.37-4-5.42-10.02-4.63-15.25.13-.87.37-1.73.67-2.55,5.88.11,10.93,4.39,12.16,10.11.11.5.25,1.18.29,1.67Z"/>
  <path class="cls-1" d="M7.14,1.37c6.33-.44,12.06,3.48,15,8.87.22.4.86,1.53.95,1.89.29,1.13-.47,1.58-1.35,2-6.06,2.9-16.17,3.61-20.34-2.72C-2.1,6.08,1.4,1.77,7.14,1.37Z"/>
  <path class="cls-3" d="M36.05,37.83c.1.13-.25.3-.34.37-1.86,1.28-4.42,1.85-6.64,1.97-.83.04-2.49.11-3.26,0-.4-.05-.97-.71-1.25-1.01-3.75-3.93-6.4-9.89-7.05-15.28-.08-.62-.33-3.1-.1-3.51.14-.25,1.46-1.48,1.76-1.75,2.07-1.88,4.49-3.43,7.28-3.97-.07.73-.3,1.42-.41,2.14-1.09,7.54,2.89,16.75,9.41,20.76.18.11.4.22.61.27h-.01Z"/>
  <path class="cls-2" d="M14.97,23.45c.35,4.43,1.9,8.76,4.12,12.57l2.66,3.82c-2.68-.35-5.42-.78-8.01-1.57-1.32-.4-4.06-1.22-4.21-2.82-.28-3.15,3.15-9.47,5.2-11.87.07-.09.08-.18.24-.14h0Z"/>
  <path class="cls-4" d="M29.09.03c2.83-.31,4.15,2.3,3.95,4.79-.25,3.05-2.84,5.62-5.43,6.95-1.58.81-2.38.9-3.14-.88-1.62-3.82-.18-10.32,4.62-10.85h0Z"/>
</svg>